<svg width="0" height="0" style="display: none;" id="ng-sprite">
<symbol id="ng-contact" xmlns="http://www.w3.org/2000/svg" viewBox="0 0 24 24"><rect xmlns="http://www.w3.org/2000/svg" fill="none" height="24" width="24"></rect>
<path xmlns="http://www.w3.org/2000/svg" d="M13.17,4L18,8.83V20H6V4H13.17 M14,2H6C4.9,2,4,2.9,4,4v16c0,1.1,0.9,2,2,2h12c1.1,0,2-0.9,2-2V8L14,2L14,2z M12,14 c1.1,0,2-0.9,2-2c0-1.1-0.9-2-2-2s-2,0.9-2,2C10,13.1,10.9,14,12,14z M16,17.43c0-0.81-0.48-1.53-1.22-1.85 C13.93,15.21,12.99,15,12,15c-0.99,0-1.93,0.21-2.78,0.58C8.48,15.9,8,16.62,8,17.43V18h8V17.43z"></path>
</symbol>
<symbol id="ng-dashboard" xmlns="http://www.w3.org/2000/svg" viewBox="0 -960 960 960"><path xmlns="http://www.w3.org/2000/svg" d="M510-570v-270h330v270H510ZM120-450v-390h330v390H120Zm390 330v-390h330v390H510Zm-390 0v-270h330v270H120Zm60-390h210v-270H180v270Zm390 330h210v-270H570v270Zm0-450h210v-150H570v150ZM180-180h210v-150H180v150Zm210-330Zm180-120Zm0 180ZM390-330Z"></path>
</symbol>
<symbol id="ng-home" xmlns="http://www.w3.org/2000/svg" viewBox="0 0 24 24"><path xmlns="http://www.w3.org/2000/svg" d="M0 0h24v24H0z" fill="none"></path>
<path xmlns="http://www.w3.org/2000/svg" d="M10 20v-6h4v6h5v-8h3L12 3 2 12h3v8z"></path>
</symbol>
<symbol id="ng-info" xmlns="http://www.w3.org/2000/svg" viewBox="0 -960 960 960"><path xmlns="http://www.w3.org/2000/svg" d="M453-280h60v-240h-60v240Zm26.982-314q14.018 0 23.518-9.2T513-626q0-14.45-9.482-24.225-9.483-9.775-23.5-9.775-14.018 0-23.518 9.775T447-626q0 13.6 9.482 22.8 9.483 9.2 23.5 9.2Zm.284 514q-82.734 0-155.5-31.5t-127.266-86q-54.5-54.5-86-127.341Q80-397.681 80-480.5q0-82.819 31.5-155.659Q143-709 197.5-763t127.341-85.5Q397.681-880 480.5-880q82.819 0 155.659 31.5Q709-817 763-763t85.5 127Q880-563 880-480.266q0 82.734-31.5 155.5T763-197.684q-54 54.316-127 86Q563-80 480.266-80Zm.234-60Q622-140 721-239.5t99-241Q820-622 721.188-721 622.375-820 480-820q-141 0-240.5 98.812Q140-622.375 140-480q0 141 99.5 240.5t241 99.5Zm-.5-340Z"></path>
</symbol>
<symbol id="ng-login" xmlns="http://www.w3.org/2000/svg" viewBox="0 0 24 24"><path xmlns="http://www.w3.org/2000/svg" d="M0 0h24v24H0z" fill="none"></path>
<path xmlns="http://www.w3.org/2000/svg" d="M12 12c2.21 0 4-1.79 4-4s-1.79-4-4-4-4 1.79-4 4 1.79 4 4 4zm0 2c-2.67 0-8 1.34-8 4v2h16v-2c0-2.66-5.33-4-8-4z"></path>
</symbol>
<symbol id="ng-logout" xmlns="http://www.w3.org/2000/svg" viewBox="0 0 24 24"><g xmlns="http://www.w3.org/2000/svg"><path d="M0,0h24v24H0V0z" fill="none"></path></g>
<g xmlns="http://www.w3.org/2000/svg"><path d="M17,8l-1.41,1.41L17.17,11H9v2h8.17l-1.58,1.58L17,16l4-4L17,8z M5,5h7V3H5C3.9,3,3,3.9,3,5v14c0,1.1,0.9,2,2,2h7v-2H5V5z"></path></g>
</symbol>
<symbol id="ng-menu" xmlns="http://www.w3.org/2000/svg" viewBox="0 -960 960 960"><path xmlns="http://www.w3.org/2000/svg" d="M120-240v-60h720v60H120Zm0-210v-60h720v60H120Zm0-210v-60h720v60H120Z"></path>
</symbol>
<symbol id="ng-reg" xmlns="http://www.w3.org/2000/svg" viewBox="0 -960 960 960"><path xmlns="http://www.w3.org/2000/svg" d="M80-160v-94q0-34 17-62.5t51-43.5q72-32 132-46t120-14q29 0 61.5 3.5T528-404l-49 49q-20-2-39.5-3.5T400-360q-58 0-105.5 10.5T172-306q-17 8-24.5 23t-7.5 29v34h319l60 60H80Zm545 16L484-285l42-42 99 99 213-213 42 42-255 255ZM400-482q-66 0-108-42t-42-108q0-66 42-108t108-42q66 0 108 42t42 108q0 66-42 108t-108 42Zm59 262Zm-59-322q39 0 64.5-25.5T490-632q0-39-25.5-64.5T400-722q-39 0-64.5 25.5T310-632q0 39 25.5 64.5T400-542Zm0-90Z"></path>
</symbol>
</svg>